:SAMPLES-PER-SECOND 30
:FULLY-SPECIFIED
:DEGREES
498
root  -6.9168 40.7299 1.41075 166.856 -77.4079 -168.819
RightUpLeg  10.6029 -2.88756 -3.75693
RightLeg  -2.109 -6.87471 -0.174083
RightFoot  -0.822634 -0.73812 7.94491
RightToes  -3.10096e-008 1.75238e-005 3.56266e-009
Spine  -13.1256 -6.17452 -6.79206
Spine1  9.43611 -9.38469 14.5309
HEad  1.4175 13.4377 7.22318
LeftShoulder1  1.3234 -3.88243 -10.6965
LeftArm  -76.5349 -35.5847 -3.25343
LeftForeArm  101.115 -79.7733 -100.026
LeftHand  -1.22016 -6.71901 11.9907
RightShoulder  0.554738 -0.358076 10.4239
RightArm  -84.624 19.1331 0.85665
RightForeArm  112.083 67.7606 149.319
RightHand  -0.731951 10.4474 -5.7649
LeftUpLeg  13.4927 2.3673 1.07975
LeftLeg  -4.01998 23.6658 -1.97015
LeftFoot  -5.42664 0.0758971 -0.931415
LeftToes  4.7633e-008 1.48299e-008 1.30754e-009
499
root  -6.9781 40.7674 1.40393 166.764 -77.8795 -168.496
RightUpLeg  10.4753 -2.89522 -3.7526
RightLeg  -2.05703 -7.39772 -0.128501
RightFoot  -0.540453 -0.769499 8.08764
RightToes  -3.10096e-008 1.75238e-005 3.56266e-009
Spine  -13.0575 -6.04114 -6.7662
Spine1  8.06061 -9.05792 14.6046
HEad  2.69106 12.5197 7.35504
LeftShoulder1  1.09576 -3.09425 -9.04408
LeftArm  -74.9922 -36.8338 -3.63734
LeftForeArm  51.0879 -77.0361 -49.9682
LeftHand  -1.28351 -6.77507 12.5416
RightShoulder  0.368825 -1.17728 8.4851
RightArm  -82.5403 19.365 0.674256
RightForeArm  103.133 72.7198 138.574
RightHand  -0.966306 9.99494 -7.65789
LeftUpLeg  13.3649 2.23176 1.0321
LeftLeg  -4.24471 23.3731 -1.9372
LeftFoot  -4.98616 0.0868334 -1.1029
LeftToes  4.7633e-008 1.48299e-008 1.30754e-009
500
root  -6.97507 40.7819 1.38296 167.089 -78.212 -168.521
RightUpLeg  10.0738 -2.74896 -3.63927
RightLeg  -1.83288 -8.01563 -0.231912
RightFoot  -0.527501 -0.774497 8.1312
RightToes  -3.10096e-008 1.75238e-005 3.56266e-009
Spine  -12.935 -5.86057 -6.75777
Spine1  7.04726 -8.68869 14.4679
HEad  3.22405 12.1912 7.16397
LeftShoulder1  0.716394 -1.45352 -6.83102
LeftArm  -73.0565 -38.0715 -6.47479
LeftForeArm  35.47 -72.6806 -34.3559
LeftHand  -1.37901 -6.17405 14.1196
RightShoulder  0.265651 -1.69138 7.19436
RightArm  -80.3063 18.9372 1.08863
RightForeArm  97.0115 75.1264 130.042
RightHand  -1.0847 9.96407 -8.56859
LeftUpLeg  12.9456 2.12132 0.980187
LeftLeg  -4.13655 23.139 -1.83162
LeftFoot  -4.82835 0.0888924 -1.13603
LeftToes  4.7633e-008 1.48299e-008 1.30754e-009
501
root  -6.94847 40.7786 1.35092 167.203 -78.6132 -168.606
RightUpLeg  10.0391 -2.71999 -3.58137
RightLeg  -1.76868 -8.59691 -0.255766
RightFoot  -0.655629 -0.75308 7.991
RightToes  -3.10096e-008 1.75238e-005 3.56266e-009
Spine  -12.8329 -5.86035 -6.71288
Spine1  7.26362 -8.61564 14.0485
HEad  2.16481 12.2379 6.437
LeftShoulder1  0.964456 -2.7769 -7.83127
LeftArm  -73.7808 -35.2972 -3.56306
LeftForeArm  36.5712 -73.0638 -35.8865
LeftHand  -1.35751 -5.42253 14.8089
RightShoulder  0.27833 -1.60992 7.14711
RightArm  -78.8645 18.2093 1.79044
RightForeArm  101.975 74.0869 134.329
RightHand  -1.0223 9.60711 -8.27876
LeftUpLeg  12.8544 2.07564 0.984374
LeftLeg  -4.13494 22.7177 -1.80442
LeftFoot  -4.83384 0.0870532 -1.1082
LeftToes  4.7633e-008 1.48299e-008 1.30754e-009
502
root  -6.9059 40.7718 1.31131 167.334 -78.9915 -168.76
RightUpLeg  10.1469 -2.72834 -3.5414
RightLeg  -1.92058 -9.13022 -0.194195
RightFoot  -0.804921 -0.703507 7.55856
RightToes  -3.10096e-008 1.75238e-005 3.56266e-009
Spine  -13.0883 -5.81484 -6.65038
Spine1  8.69089 -8.63236 13.4349
HEad  -0.373884 12.7317 4.81935
LeftShoulder1  0.903173 -2.12826 -8.55463
LeftArm  -74.3698 -33.9987 -5.49855
LeftForeArm  55.4337 -77.7502 -56.0504
LeftHand  -1.30721 -6.09821 13.4989
RightShoulder  0.365315 -1.23955 8.83658
RightArm  -78.1828 17.4705 1.8614
RightForeArm  111.694 70.3013 144.97
RightHand  -0.881922 10.1154 -6.97935
LeftUpLeg  12.6804 2.10462 1.00272
LeftLeg  -3.93047 22.3927 -1.71956
LeftFoot  -4.82676 0.0892086 -1.1421
LeftToes  4.7633e-008 1.48299e-008 1.30754e-009
503
root  -6.85105 40.7608 1.26383 167.485 -79.3551 -168.843
RightUpLeg  10.2484 -2.67618 -3.44721
RightLeg  -2.31411 -9.62682 -0.10542
RightFoot  -0.89656 -0.665082 7.20039
RightToes  -3.10096e-008 1.75238e-005 3.56266e-009
Spine  -13.2375 -5.65954 -6.8762
Spine1  9.87427 -8.56746 13.3068
HEad  -2.93834 13.0235 2.84264
LeftShoulder1  1.00549 -2.17114 -10.4684
LeftArm  -74.5834 -31.5431 -6.91528
LeftForeArm  100.923 -79.4023 -103.822
LeftHand  -1.23076 -6.83239 11.9781
RightShoulder  0.441764 -1.06234 10.9743
RightArm  -76.8927 16.7463 2.43058
RightForeArm  120.749 64.4686 154.398
RightHand  -0.915038 10.5376 -7.05293
LeftUpLeg  12.6354 2.04578 0.99529
LeftLeg  -4.22985 22.0989 -1.76155
LeftFoot  -4.7062 0.0777466 -0.964009
LeftToes  4.7633e-008 1.48299e-008 1.30754e-009
504
root  -6.80801 40.7529 1.21678 167.399 -79.7123 -168.613
RightUpLeg  10.4361 -2.71592 -3.39767
RightLeg  -2.98683 -9.98506 0.170486
RightFoot  -0.840399 -0.635426 6.84317
RightToes  -3.10096e-008 1.75238e-005 3.56266e-009
Spine  -14.1713 -5.64887 -7.08059
Spine1  11.9615 -8.75518 13.3071
HEad  -5.18069 13.6307 0.824143
LeftShoulder1  1.09711 -2.06359 -12.5888
LeftArm  -74.5141 -28.4305 -9.13467
LeftForeArm  136.478 -73.5465 -141.926
LeftHand  -1.13587 -6.44746 11.4465
RightShoulder  0.644816 -0.331059 13.4291
RightArm  -75.32 16.5176 3.54578
RightForeArm  128.349 57.9338 160.68
RightHand  -0.898813 10.9271 -6.78268
LeftUpLeg  12.5566 2.038 1.08843
LeftLeg  -4.58141 21.7143 -1.86364
LeftFoot  -4.59681 0.0688147 -0.824909
LeftToes  4.7633e-008 1.48299e-008 1.30754e-009
505
root  -6.70057 40.7561 1.15351 168.034 -79.9409 -169.085
RightUpLeg  10.2383 -2.58679 -3.29489
RightLeg  -3.18363 -10.3941 0.167331
RightFoot  -0.877438 -0.616506 6.65901
RightToes  -3.10096e-008 1.75238e-005 3.56266e-009
Spine  -14.4166 -5.1945 -7.21238
Spine1  13.2677 -8.4034 13.2139
HEad  -7.59191 14.0403 -1.34245
LeftShoulder1  1.3391 -2.57191 -15.2398
LeftArm  -74.453 -25.0505 -10.571
LeftForeArm  149.415 -65.5441 -156.299
LeftHand  -1.16298 -7.06891 11.1467
RightShoulder  0.947659 0.79151 15.3601
RightArm  -73.5209 15.6239 5.83585
RightForeArm  134.547 51.2079 165.002
RightHand  -0.822837 10.9732 -6.2284
LeftUpLeg  12.2427 1.90904 1.04229
LeftLeg  -4.68188 21.5762 -1.8146
LeftFoot  -4.36962 0.0753763 -0.926289
LeftToes  4.7633e-008 1.48299e-008 1.30754e-009
